<svg width="319" height="133" viewBox="0 0 319 133" fill="none" xmlns="http://www.w3.org/2000/svg">
<path d="M99.1165 3.7248C99.5773 2.3424 100.461 1.6512 101.766 1.6512C103.149 1.6512 104.262 2.2272 105.107 3.3792C106.029 4.4544 106.489 5.87521 106.489 7.64161C106.489 9.408 105.99 11.0976 104.992 12.7104C104.07 14.2464 102.918 15.552 101.536 16.6272C100.23 17.7024 98.3869 18.7392 96.0061 19.7376C92.7037 21.1968 87.7885 22.848 81.2605 24.6912C79.4174 31.4496 78.035 39.6288 77.1133 49.2288C76.2685 58.752 75.3853 66.7008 74.4637 73.0752C73.5421 79.4496 72.5053 85.4016 71.3533 90.9312C70.2013 96.384 68.5117 101.722 66.2845 106.944C64.0573 112.243 61.4461 116.736 58.4509 120.422C55.4557 124.109 51.5773 127.066 46.8157 129.293C42.1309 131.52 36.7549 132.634 30.6877 132.634C18.6301 132.634 10.0286 128.371 4.88295 119.846C2.19495 115.392 0.85095 110.515 0.85095 105.216C0.85095 102.682 1.15815 100.07 1.77255 97.3824C3.61575 89.5488 7.45575 83.8272 13.2925 80.2176C16.7485 78.0672 20.5117 76.992 24.5821 76.992C32.8765 76.992 38.5598 80.256 41.6318 86.784C42.8605 89.5488 43.4749 92.2752 43.4749 94.9632C43.4749 97.5744 43.0525 100.147 42.2077 102.682C40.1341 108.365 36.7549 111.206 32.0701 111.206C30.7645 111.206 29.6893 110.477 28.8445 109.018C31.9933 109.018 34.4893 106.79 36.3325 102.336C37.4845 99.5712 38.0606 96.96 38.0606 94.5024C38.0606 92.0448 37.715 89.7792 37.0237 87.7056C35.0269 82.0224 30.9181 79.1808 24.6973 79.1808C17.4013 79.1808 11.6797 82.56 7.53255 89.3184C4.69095 94.0032 3.27015 98.9952 3.27015 104.294C3.27015 106.138 3.46215 107.981 3.84615 109.824C5.22855 117.965 9.33735 123.686 16.1725 126.989C19.7821 128.755 24.3517 129.638 29.8813 129.638C35.4109 129.638 40.5182 127.834 45.203 124.224C49.8878 120.614 53.4973 116.045 56.0317 110.515C58.6429 105.062 60.9085 98.4576 62.8285 90.7008C64.8253 82.8672 66.2845 75.4176 67.2062 68.352C69.8941 49.0752 72.5437 35.0976 75.1549 26.4192C61.1005 30.4896 51.539 35.0208 46.4702 40.0128C44.3966 42.1632 42.6301 44.8896 41.1709 48.192C39.7117 51.4176 38.9821 55.0272 38.9821 59.0208C38.9821 63.0144 39.9805 66.3936 41.9773 69.1584C43.9741 71.9232 46.5085 73.3056 49.5805 73.3056C49.5805 73.92 49.2733 74.496 48.6589 75.0336C48.0446 75.5712 47.2766 75.84 46.3549 75.84C42.5917 75.84 39.4813 74.2272 37.0237 71.0016C34.6429 67.776 33.4525 64.2048 33.4525 60.288C33.4525 56.2944 33.9133 52.9152 34.8349 50.1504C35.8333 47.3856 37.0237 45.0048 38.4061 43.008C39.8653 40.9344 41.7853 38.976 44.1662 37.1328C46.6237 35.2896 48.9277 33.7536 51.0781 32.5248C53.2285 31.296 55.9549 30.0288 59.2573 28.7232C64.1725 26.88 69.8173 25.0368 76.1917 23.1936C79.8013 13.1328 84.9853 8.10241 91.7437 8.10241C92.2813 8.10241 92.7422 8.2944 93.1262 8.6784C93.5869 8.9856 93.9325 9.44641 94.163 10.0608C88.8637 10.0608 84.9085 13.824 82.2973 21.3504C89.0557 19.3536 94.1245 17.3952 97.5037 15.4752C100.96 13.5552 102.688 11.0976 102.688 8.10241C102.688 6.7968 102.342 5.76 101.651 4.992C100.96 4.1472 100.115 3.7248 99.1165 3.7248ZM98.0068 96.1152C91.9397 96.1152 88.9061 91.5456 88.9061 82.4064C88.9061 77.1072 90.2885 71.3088 93.0532 65.0112C96.8932 56.4864 101.77 50.9184 107.684 48.3072C109.757 47.4624 111.831 47.04 113.904 47.04C116.055 47.04 117.744 47.6544 118.973 48.8832C120.202 50.112 120.816 51.4944 120.816 53.0304C120.816 53.7216 120.432 54.0672 119.664 54.0672C118.973 53.9904 118.628 53.6064 118.628 52.9152C118.628 52.224 118.244 51.6096 117.476 51.072C116.784 50.4576 115.748 50.1504 114.365 50.1504C109.527 50.1504 105.149 54.4896 101.232 63.168C97.546 71.232 95.7028 78.8736 95.7028 86.0928C95.7028 90.5472 96.6628 92.7744 98.5828 92.7744C100.58 92.7744 102.96 91.1232 105.725 87.8208C108.567 84.4416 111.178 80.5248 113.559 76.0704C118.704 66.7008 121.738 60.672 122.66 57.984C123.581 55.296 124.58 53.952 125.655 53.952C127.575 53.952 128.535 55.5648 128.535 58.7904C128.535 59.7888 128.42 60.9408 128.189 62.2464C125.655 74.5344 124.272 81.6384 124.042 83.5584C123.888 85.4784 123.812 86.8608 123.812 87.7056C123.812 91.392 124.695 93.2352 126.461 93.2352C128.458 93.2352 131.261 90.5856 134.871 85.2864C138.48 79.9872 141.591 74.688 144.202 69.3888L148.119 61.44H151.229C150.768 62.3616 150.154 63.6288 149.386 65.2416C148.695 66.7776 147.274 69.5808 145.124 73.6512C142.973 77.6448 140.9 81.1776 138.903 84.2496C136.983 87.3216 134.794 90.1248 132.336 92.6592C129.956 95.1168 127.882 96.3456 126.116 96.3456C120.432 96.3456 117.591 92.1984 117.591 83.904C117.591 81.1392 117.898 77.9136 118.512 74.2272H117.706C109.872 88.8192 103.306 96.1152 98.0068 96.1152ZM146.209 96C144.059 96 142.984 94.3488 142.984 91.0464C142.984 89.28 145.134 76.416 149.435 52.4544C149.665 50.8416 150.357 50.0352 151.509 50.0352C152.891 50.0352 153.928 51.0336 154.619 53.0304C155.003 54.1056 155.195 55.296 155.195 56.6016C155.195 57.8304 155.041 59.1744 154.734 60.6336L152.891 69.8496H153.582C160.494 54.336 167.099 46.5792 173.397 46.5792C175.854 46.5792 177.736 47.3472 179.041 48.8832C180.347 50.3424 181 52.3776 181 54.9888C181 57.6 179.963 63.2448 177.889 71.9232C175.816 80.6016 174.779 86.6304 174.779 90.0096C174.779 95.0016 175.701 97.4976 177.544 97.4976C177.544 98.0352 177.198 98.5728 176.507 99.1104C175.816 99.648 175.009 99.9168 174.088 99.9168C169.633 99.9168 167.406 96.4224 167.406 89.4336C167.406 85.1328 168.558 78.6432 170.862 69.9648C173.243 61.2096 174.434 55.6416 174.434 53.2608C174.434 50.8032 173.473 49.5744 171.553 49.5744C168.789 49.5744 165.448 53.184 161.531 60.4032C157.691 67.6224 154.581 74.5344 152.2 81.1392C149.896 87.6672 148.552 91.776 148.168 93.4656C147.861 95.1552 147.208 96 146.209 96ZM197.646 79.1808C197.646 88.4736 200.948 93.12 207.553 93.12C210.01 93.12 212.583 92.0448 215.271 89.8944C218.036 87.6672 220.532 85.0176 222.759 81.9456C227.674 74.88 231.13 69.12 233.127 64.6656L234.625 61.44H237.735C236.43 64.512 234.51 68.3136 231.975 72.8448C229.441 77.2992 227.022 81.0624 224.718 84.1344C222.414 87.2064 219.687 90.0096 216.538 92.544C213.39 95.0016 210.394 96.2304 207.553 96.2304C196.186 96.2304 190.503 89.856 190.503 77.1072C190.503 71.1936 192.231 65.28 195.687 59.3664C200.449 51.1488 206.324 47.04 213.313 47.04C218.228 47.04 220.686 49.728 220.686 55.104C220.686 59.0976 219.15 63.2448 216.078 67.5456C211.777 73.3824 206.746 76.3392 200.986 76.416C200.142 76.416 199.604 76.032 199.374 75.264L199.258 74.8032C203.252 74.8032 207.054 72.192 210.663 66.9696C214.35 61.6704 216.193 57.2544 216.193 53.7216C216.193 51.3408 215.271 50.1504 213.428 50.1504C209.358 50.1504 205.556 53.7216 202.023 60.864C199.105 66.9312 197.646 73.0368 197.646 79.1808ZM308.06 0.268802C315.126 0.268802 318.658 5.568 318.658 16.1664C318.658 22.9248 316.815 30.72 313.129 39.552C307.753 52.3776 300.457 62.2464 291.241 69.1584C287.708 71.7696 284.098 73.7664 280.412 75.1488C276.726 84.672 272.079 91.6224 266.473 96C274.153 101.683 279.721 105.37 283.177 107.059C286.633 108.826 289.974 109.709 293.199 109.709C298.806 109.709 302.492 107.75 304.258 103.834C304.796 102.605 305.065 101.453 305.065 100.378C305.065 99.3024 304.758 98.3808 304.143 97.6128C303.606 96.9216 302.953 96.576 302.185 96.576C302.415 95.6544 302.991 95.1936 303.913 95.1936C306.524 95.1936 308.252 96.6528 309.097 99.5712C309.404 100.57 309.558 101.53 309.558 102.451C309.558 104.755 308.674 106.906 306.908 108.902C304.45 111.821 300.802 113.28 295.964 113.28C289.897 113.28 284.06 111.514 278.454 107.981C275.305 106.061 273.001 104.563 271.542 103.488C270.159 102.413 267.663 100.493 264.054 97.728C259.292 100.723 254.031 102.221 248.271 102.221C239.746 102.221 234.217 100.07 231.683 95.7696C230.991 94.464 230.646 93.12 230.646 91.7376C230.646 90.2784 231.26 88.7808 232.489 87.2448C234.409 84.864 237.174 83.6736 240.783 83.6736C246.543 83.6736 253.724 86.784 262.326 93.0048C265.782 89.472 268.892 84.2112 271.657 77.2224C270.889 77.2992 269.775 77.3376 268.316 77.3376C255.798 77.3376 246.62 72.3456 240.783 62.3616C237.25 56.2176 235.484 49.4208 235.484 41.9712C235.484 39.4368 235.676 36.864 236.06 34.2528C237.442 24.4992 241.052 17.0496 246.889 11.904C250.882 8.5248 255.414 6.8352 260.482 6.8352C265.551 6.8352 269.468 8.4864 272.233 11.7888C274.998 15.0912 276.457 19.1616 276.61 24C276.61 24.6912 276.226 25.2672 275.458 25.728C274.69 26.112 273.922 26.2272 273.155 26.0736C272.386 25.8432 272.002 25.344 272.002 24.576C271.849 19.968 270.927 16.32 269.238 13.632C267.548 10.8672 264.514 9.4848 260.137 9.4848C253.225 9.4848 247.657 13.2864 243.433 20.8896C240.054 26.88 238.364 33.4848 238.364 40.704C238.364 53.9136 242.626 63.4752 251.151 69.3888C255.836 72.6912 261.519 74.3424 268.201 74.3424C269.737 74.3424 271.311 74.2272 272.924 73.9968C274.69 69.2352 276.572 63.0144 278.569 55.3344C280.566 47.5776 282.332 40.8576 283.868 35.1744C285.481 29.4144 287.362 23.6928 289.513 18.0096C293.967 6.1824 300.15 0.268802 308.06 0.268802ZM306.793 3.6096C301.417 3.6096 297.308 8.7936 294.466 19.1616C293.084 24.1536 291.855 29.2992 290.78 34.5984C287.631 50.8032 284.713 62.8992 282.025 70.8864C291.471 66.048 299.19 56.9856 305.18 43.6992C310.018 33.1008 312.399 23.3472 312.322 14.4384C312.092 7.3728 310.249 3.7632 306.793 3.6096ZM260.252 94.9632C252.726 89.3568 246.236 86.5536 240.783 86.5536C237.327 86.5536 235.138 87.7824 234.217 90.24C233.219 92.6208 234.255 94.8864 237.327 97.0368C239.631 98.6496 243.126 99.456 247.811 99.456C252.495 99.456 256.642 97.9584 260.252 94.9632Z" fill="#DD1420"/>
<path d="M99.1165 3.7248C99.5773 2.3424 100.461 1.6512 101.766 1.6512C103.149 1.6512 104.262 2.2272 105.107 3.3792C106.029 4.4544 106.489 5.87521 106.489 7.64161C106.489 9.408 105.99 11.0976 104.992 12.7104C104.07 14.2464 102.918 15.552 101.536 16.6272C100.23 17.7024 98.3869 18.7392 96.0061 19.7376C92.7037 21.1968 87.7885 22.848 81.2605 24.6912C79.4174 31.4496 78.035 39.6288 77.1133 49.2288C76.2685 58.752 75.3853 66.7008 74.4637 73.0752C73.5421 79.4496 72.5053 85.4016 71.3533 90.9312C70.2013 96.384 68.5117 101.722 66.2845 106.944C64.0573 112.243 61.4461 116.736 58.4509 120.422C55.4557 124.109 51.5773 127.066 46.8157 129.293C42.1309 131.52 36.7549 132.634 30.6877 132.634C18.6301 132.634 10.0286 128.371 4.88295 119.846C2.19495 115.392 0.85095 110.515 0.85095 105.216C0.85095 102.682 1.15815 100.07 1.77255 97.3824C3.61575 89.5488 7.45575 83.8272 13.2925 80.2176C16.7485 78.0672 20.5117 76.992 24.5821 76.992C32.8765 76.992 38.5598 80.256 41.6318 86.784C42.8605 89.5488 43.4749 92.2752 43.4749 94.9632C43.4749 97.5744 43.0525 100.147 42.2077 102.682C40.1341 108.365 36.7549 111.206 32.0701 111.206C30.7645 111.206 29.6893 110.477 28.8445 109.018C31.9933 109.018 34.4893 106.79 36.3325 102.336C37.4845 99.5712 38.0606 96.96 38.0606 94.5024C38.0606 92.0448 37.715 89.7792 37.0237 87.7056C35.0269 82.0224 30.9181 79.1808 24.6973 79.1808C17.4013 79.1808 11.6797 82.56 7.53255 89.3184C4.69095 94.0032 3.27015 98.9952 3.27015 104.294C3.27015 106.138 3.46215 107.981 3.84615 109.824C5.22855 117.965 9.33735 123.686 16.1725 126.989C19.7821 128.755 24.3517 129.638 29.8813 129.638C35.4109 129.638 40.5182 127.834 45.203 124.224C49.8878 120.614 53.4973 116.045 56.0317 110.515C58.6429 105.062 60.9085 98.4576 62.8285 90.7008C64.8253 82.8672 66.2845 75.4176 67.2062 68.352C69.8941 49.0752 72.5437 35.0976 75.1549 26.4192C61.1005 30.4896 51.539 35.0208 46.4702 40.0128C44.3966 42.1632 42.6301 44.8896 41.1709 48.192C39.7117 51.4176 38.9821 55.0272 38.9821 59.0208C38.9821 63.0144 39.9805 66.3936 41.9773 69.1584C43.9741 71.9232 46.5085 73.3056 49.5805 73.3056C49.5805 73.92 49.2733 74.496 48.6589 75.0336C48.0446 75.5712 47.2766 75.84 46.3549 75.84C42.5917 75.84 39.4813 74.2272 37.0237 71.0016C34.6429 67.776 33.4525 64.2048 33.4525 60.288C33.4525 56.2944 33.9133 52.9152 34.8349 50.1504C35.8333 47.3856 37.0237 45.0048 38.4061 43.008C39.8653 40.9344 41.7853 38.976 44.1662 37.1328C46.6237 35.2896 48.9277 33.7536 51.0781 32.5248C53.2285 31.296 55.9549 30.0288 59.2573 28.7232C64.1725 26.88 69.8173 25.0368 76.1917 23.1936C79.8013 13.1328 84.9853 8.10241 91.7437 8.10241C92.2813 8.10241 92.7422 8.2944 93.1262 8.6784C93.5869 8.9856 93.9325 9.44641 94.163 10.0608C88.8637 10.0608 84.9085 13.824 82.2973 21.3504C89.0557 19.3536 94.1245 17.3952 97.5037 15.4752C100.96 13.5552 102.688 11.0976 102.688 8.10241C102.688 6.7968 102.342 5.76 101.651 4.992C100.96 4.1472 100.115 3.7248 99.1165 3.7248ZM98.0068 96.1152C91.9397 96.1152 88.9061 91.5456 88.9061 82.4064C88.9061 77.1072 90.2885 71.3088 93.0532 65.0112C96.8932 56.4864 101.77 50.9184 107.684 48.3072C109.757 47.4624 111.831 47.04 113.904 47.04C116.055 47.04 117.744 47.6544 118.973 48.8832C120.202 50.112 120.816 51.4944 120.816 53.0304C120.816 53.7216 120.432 54.0672 119.664 54.0672C118.973 53.9904 118.628 53.6064 118.628 52.9152C118.628 52.224 118.244 51.6096 117.476 51.072C116.784 50.4576 115.748 50.1504 114.365 50.1504C109.527 50.1504 105.149 54.4896 101.232 63.168C97.546 71.232 95.7028 78.8736 95.7028 86.0928C95.7028 90.5472 96.6628 92.7744 98.5828 92.7744C100.58 92.7744 102.96 91.1232 105.725 87.8208C108.567 84.4416 111.178 80.5248 113.559 76.0704C118.704 66.7008 121.738 60.672 122.66 57.984C123.581 55.296 124.58 53.952 125.655 53.952C127.575 53.952 128.535 55.5648 128.535 58.7904C128.535 59.7888 128.42 60.9408 128.189 62.2464C125.655 74.5344 124.272 81.6384 124.042 83.5584C123.888 85.4784 123.812 86.8608 123.812 87.7056C123.812 91.392 124.695 93.2352 126.461 93.2352C128.458 93.2352 131.261 90.5856 134.871 85.2864C138.48 79.9872 141.591 74.688 144.202 69.3888L148.119 61.44H151.229C150.768 62.3616 150.154 63.6288 149.386 65.2416C148.695 66.7776 147.274 69.5808 145.124 73.6512C142.973 77.6448 140.9 81.1776 138.903 84.2496C136.983 87.3216 134.794 90.1248 132.336 92.6592C129.956 95.1168 127.882 96.3456 126.116 96.3456C120.432 96.3456 117.591 92.1984 117.591 83.904C117.591 81.1392 117.898 77.9136 118.512 74.2272H117.706C109.872 88.8192 103.306 96.1152 98.0068 96.1152ZM146.209 96C144.059 96 142.984 94.3488 142.984 91.0464C142.984 89.28 145.134 76.416 149.435 52.4544C149.665 50.8416 150.357 50.0352 151.509 50.0352C152.891 50.0352 153.928 51.0336 154.619 53.0304C155.003 54.1056 155.195 55.296 155.195 56.6016C155.195 57.8304 155.041 59.1744 154.734 60.6336L152.891 69.8496H153.582C160.494 54.336 167.099 46.5792 173.397 46.5792C175.854 46.5792 177.736 47.3472 179.041 48.8832C180.347 50.3424 181 52.3776 181 54.9888C181 57.6 179.963 63.2448 177.889 71.9232C175.816 80.6016 174.779 86.6304 174.779 90.0096C174.779 95.0016 175.701 97.4976 177.544 97.4976C177.544 98.0352 177.198 98.5728 176.507 99.1104C175.816 99.648 175.009 99.9168 174.088 99.9168C169.633 99.9168 167.406 96.4224 167.406 89.4336C167.406 85.1328 168.558 78.6432 170.862 69.9648C173.243 61.2096 174.434 55.6416 174.434 53.2608C174.434 50.8032 173.473 49.5744 171.553 49.5744C168.789 49.5744 165.448 53.184 161.531 60.4032C157.691 67.6224 154.581 74.5344 152.2 81.1392C149.896 87.6672 148.552 91.776 148.168 93.4656C147.861 95.1552 147.208 96 146.209 96ZM197.646 79.1808C197.646 88.4736 200.948 93.12 207.553 93.12C210.01 93.12 212.583 92.0448 215.271 89.8944C218.036 87.6672 220.532 85.0176 222.759 81.9456C227.674 74.88 231.13 69.12 233.127 64.6656L234.625 61.44H237.735C236.43 64.512 234.51 68.3136 231.975 72.8448C229.441 77.2992 227.022 81.0624 224.718 84.1344C222.414 87.2064 219.687 90.0096 216.538 92.544C213.39 95.0016 210.394 96.2304 207.553 96.2304C196.186 96.2304 190.503 89.856 190.503 77.1072C190.503 71.1936 192.231 65.28 195.687 59.3664C200.449 51.1488 206.324 47.04 213.313 47.04C218.228 47.04 220.686 49.728 220.686 55.104C220.686 59.0976 219.15 63.2448 216.078 67.5456C211.777 73.3824 206.746 76.3392 200.986 76.416C200.142 76.416 199.604 76.032 199.374 75.264L199.258 74.8032C203.252 74.8032 207.054 72.192 210.663 66.9696C214.35 61.6704 216.193 57.2544 216.193 53.7216C216.193 51.3408 215.271 50.1504 213.428 50.1504C209.358 50.1504 205.556 53.7216 202.023 60.864C199.105 66.9312 197.646 73.0368 197.646 79.1808ZM308.06 0.268802C315.126 0.268802 318.658 5.568 318.658 16.1664C318.658 22.9248 316.815 30.72 313.129 39.552C307.753 52.3776 300.457 62.2464 291.241 69.1584C287.708 71.7696 284.098 73.7664 280.412 75.1488C276.726 84.672 272.079 91.6224 266.473 96C274.153 101.683 279.721 105.37 283.177 107.059C286.633 108.826 289.974 109.709 293.199 109.709C298.806 109.709 302.492 107.75 304.258 103.834C304.796 102.605 305.065 101.453 305.065 100.378C305.065 99.3024 304.758 98.3808 304.143 97.6128C303.606 96.9216 302.953 96.576 302.185 96.576C302.415 95.6544 302.991 95.1936 303.913 95.1936C306.524 95.1936 308.252 96.6528 309.097 99.5712C309.404 100.57 309.558 101.53 309.558 102.451C309.558 104.755 308.674 106.906 306.908 108.902C304.45 111.821 300.802 113.28 295.964 113.28C289.897 113.28 284.06 111.514 278.454 107.981C275.305 106.061 273.001 104.563 271.542 103.488C270.159 102.413 267.663 100.493 264.054 97.728C259.292 100.723 254.031 102.221 248.271 102.221C239.746 102.221 234.217 100.07 231.683 95.7696C230.991 94.464 230.646 93.12 230.646 91.7376C230.646 90.2784 231.26 88.7808 232.489 87.2448C234.409 84.864 237.174 83.6736 240.783 83.6736C246.543 83.6736 253.724 86.784 262.326 93.0048C265.782 89.472 268.892 84.2112 271.657 77.2224C270.889 77.2992 269.775 77.3376 268.316 77.3376C255.798 77.3376 246.62 72.3456 240.783 62.3616C237.25 56.2176 235.484 49.4208 235.484 41.9712C235.484 39.4368 235.676 36.864 236.06 34.2528C237.442 24.4992 241.052 17.0496 246.889 11.904C250.882 8.5248 255.414 6.8352 260.482 6.8352C265.551 6.8352 269.468 8.4864 272.233 11.7888C274.998 15.0912 276.457 19.1616 276.61 24C276.61 24.6912 276.226 25.2672 275.458 25.728C274.69 26.112 273.922 26.2272 273.155 26.0736C272.386 25.8432 272.002 25.344 272.002 24.576C271.849 19.968 270.927 16.32 269.238 13.632C267.548 10.8672 264.514 9.4848 260.137 9.4848C253.225 9.4848 247.657 13.2864 243.433 20.8896C240.054 26.88 238.364 33.4848 238.364 40.704C238.364 53.9136 242.626 63.4752 251.151 69.3888C255.836 72.6912 261.519 74.3424 268.201 74.3424C269.737 74.3424 271.311 74.2272 272.924 73.9968C274.69 69.2352 276.572 63.0144 278.569 55.3344C280.566 47.5776 282.332 40.8576 283.868 35.1744C285.481 29.4144 287.362 23.6928 289.513 18.0096C293.967 6.1824 300.15 0.268802 308.06 0.268802ZM306.793 3.6096C301.417 3.6096 297.308 8.7936 294.466 19.1616C293.084 24.1536 291.855 29.2992 290.78 34.5984C287.631 50.8032 284.713 62.8992 282.025 70.8864C291.471 66.048 299.19 56.9856 305.18 43.6992C310.018 33.1008 312.399 23.3472 312.322 14.4384C312.092 7.3728 310.249 3.7632 306.793 3.6096ZM260.252 94.9632C252.726 89.3568 246.236 86.5536 240.783 86.5536C237.327 86.5536 235.138 87.7824 234.217 90.24C233.219 92.6208 234.255 94.8864 237.327 97.0368C239.631 98.6496 243.126 99.456 247.811 99.456C252.495 99.456 256.642 97.9584 260.252 94.9632Z" fill="black" fill-opacity="0.2"/>
</svg>
